# xmcd
#
# Track frame offsets: 
#        150
#        15735
#        30299
#        49138
#        65429
#        78967
#        95756
#        110698
#        128312
#        147019
#        163907
#        182629
#        204458
#        225033
#
# Disc length: 3225 seconds
#
# Revision: 0
# Processed by: cddbd v1.5.2PL0 Copyright (c) Steve Scherf et al.
# Submitted via: ExactAudioCopyFreeDBPlugin 1.0
#
DISCID=a90c970e
DTITLE=Shelea - Love Fell On Me
DYEAR=2013
DGENRE=R&B
TTITLE0=City of Angels
TTITLE1=I'll Never Let You Go
TTITLE2=Love the Way You Love Me
TTITLE3=Have I Ever Told You
TTITLE4=Love Fell On Me (featuring Stevie Wonder)
TTITLE5=Seeing You
TTITLE6=Independence Day
TTITLE7=Goodnight Instead of Goodbye
TTITLE8=Can't Play It Cool (featuring Brian McKnight)
TTITLE9=Never Through I'd Say It
TTITLE10=Wouldn't Be Me
TTITLE11=I Fell In
TTITLE12=Till the Morning Comes
TTITLE13=Love Fell On Me (R&B Remix)
EXTD=
EXTT0=
EXTT1=
EXTT2=
EXTT3=
EXTT4=
EXTT5=
EXTT6=
EXTT7=
EXTT8=
EXTT9=
EXTT10=
EXTT11=
EXTT12=
EXTT13=
PLAYORDER=
